<?xml version="1.0" standalone="no"?>
<!DOCTYPE svg PUBLIC "-//W3C//DTD SVG 20010904//EN" "http://www.w3.org/TR/2001/REC-SVG-20010904/DTD/svg10.dtd">
<svg xmlns="http://www.w3.org/2000/svg" version="1.0" width="3545.000000pt" height="5315.000000pt" viewBox="0 0 3545.000000 5315.000000" preserveAspectRatio="xMidYMid meet">
<metadata>
Created by potrace 1.16, written by Peter Selinger 2001-2019
<meta name="Producer" content="Online-Convert"/></metadata>
<g transform="translate(0.000000,5315.000000) scale(0.100000,-0.100000)" fill="#000000" stroke="none">
<path d="M92 53093 c94 -87 931 -870 1093 -1023 39 -36 243 -228 455 -425 211 -198 638 -598 947 -888 352 -330 570 -527 580 -525 9 2 23 25 33 53 17 47 117 312 330 870 51 132 104 274 120 315 15 41 46 122 68 180 22 58 83 220 137 360 53 140 121 318 150 395 54 142 260 681 276 723 l9 22 -2131 0 -2130 0 63 -57z"/>
<path d="M5970 53136 c0 -21 21 -76 30 -76 4 0 13 -27 19 -59 6 -33 20 -70 31 -84 11 -14 20 -36 20 -49 0 -14 11 -47 25 -74 14 -27 28 -65 31 -84 3 -19 14 -47 24 -61 10 -14 23 -51 30 -82 6 -31 17 -63 24 -69 7 -7 18 -35 25 -63 7 -27 21 -63 31 -80 9 -16 21 -48 25 -69 3 -21 13 -49 21 -61 8 -12 21 -48 29 -79 8 -31 21 -67 29 -79 8 -12 17 -38 21 -57 4 -19 14 -44 21 -56 8 -11 21 -45 30 -74 9 -29 24 -69 35 -89 10 -20 19 -45 19 -56 0 -12 9 -39 21 -60 11 -22 27 -65 35 -95 8 -30 21 -61 28 -70 7 -8 16 -32 20 -52 4 -21 18 -62 31 -90 14 -29 25 -60 25 -68 0 -8 12 -37 25 -65 14 -27 25 -59 25 -70 0 -11 11 -38 25 -60 13 -22 25 -50 25 -62 0 -34 30 -105 57 -134 21 -22 22 -29 12 -57 -27 -78 15 -81 125 -9 45 29 142 88 216 131 74 44 151 89 170 101 19 13 64 39 100 60 36 20 81 46 100 57 68 42 896 531 990 586 52 30 115 67 140 82 60 36 552 327 710 420 69 40 143 84 165 97 22 14 150 90 285 170 135 79 271 160 302 179 55 33 59 34 91 21 18 -8 114 -38 213 -67 98 -29 301 -88 449 -132 278 -81 630 -184 745 -218 172 -50 424 -124 610 -179 113 -33 261 -76 330 -96 69 -20 224 -65 345 -101 121 -36 249 -74 285 -84 191 -55 493 -144 551 -162 81 -24 103 -22 107 14 2 14 -20 115 -48 225 -28 109 -69 268 -91 353 -22 85 -53 205 -69 265 -16 61 -54 209 -85 330 -31 121 -58 228 -61 238 -5 16 -85 17 -1488 17 l-1483 0 -109 -120 c-59 -66 -112 -127 -117 -137 -5 -10 -26 -33 -46 -51 -32 -30 -37 -31 -48 -16 -13 17 -12 20 32 124 25 58 75 191 75 197 0 2 -409 3 -909 3 l-909 0 -24 -29 c-12 -16 -33 -45 -46 -63 -12 -18 -47 -67 -77 -108 -29 -41 -63 -88 -75 -105 -24 -35 -92 -129 -118 -164 -9 -13 -35 -49 -57 -81 -22 -32 -89 -126 -150 -210 -106 -146 -126 -174 -180 -250 -35 -49 -98 -137 -255 -355 -165 -229 -196 -273 -218 -305 -9 -14 -30 -43 -47 -64 -16 -22 -52 -72 -80 -111 -138 -199 -271 -382 -290 -397 -26 -22 -45 -23 -45 0 0 9 -7 30 -15 46 -8 15 -15 46 -15 68 0 46 -15 78 -35 78 -11 0 -15 11 -15 38 0 52 -18 112 -34 112 -14 0 -26 42 -26 90 0 19 -7 30 -25 38 -22 10 -25 18 -25 62 0 57 -13 90 -35 90 -11 0 -15 13 -15 54 0 46 -4 58 -25 74 -18 15 -25 29 -25 55 0 47 -16 87 -35 87 -8 0 -15 8 -16 18 -2 78 -20 138 -39 127 -11 -7 -20 31 -20 82 0 34 -5 46 -25 59 -20 13 -25 24 -25 59 0 56 -8 75 -31 75 -16 0 -19 8 -19 49 0 60 -14 101 -35 101 -11 0 -15 11 -15 39 0 47 -15 90 -36 105 -8 6 -17 34 -20 61 -4 35 -13 57 -30 73 -18 18 -24 33 -24 68 0 35 -5 50 -25 68 -19 18 -25 33 -25 65 0 49 -14 81 -35 81 -11 0 -15 12 -15 43 0 59 -9 84 -30 90 -12 3 -20 18 -25 46 -5 31 -11 41 -26 41 -10 0 -19 -6 -19 -14z"/>
<path d="M14641 52892 c-128 -212 -458 -760 -588 -974 -17 -29 -53 -90 -78 -136 -26 -45 -55 -87 -66 -92 -26 -14 -24 -47 2 -55 12 -4 85 -58 163 -120 77 -62 434 -343 791 -624 358 -281 686 -540 730 -574 44 -35 151 -119 239 -188 87 -68 200 -159 251 -201 125 -102 140 -112 152 -96 6 7 13 67 17 133 6 128 59 972 75 1215 6 80 13 190 16 245 3 55 8 129 10 165 9 112 95 1497 95 1529 l0 31 -827 0 -828 -1 -154 -257z"/>
<path d="M19506 53141 c5 -6 81 -19 169 -30 181 -23 146 -18 795 -105 267 -36 604 -81 750 -100 302 -40 841 -112 1165 -156 121 -16 310 -41 420 -55 110 -14 261 -34 335 -45 74 -10 365 -48 645 -85 281 -36 523 -70 539 -75 16 -5 31 -8 32 -7 7 6 -128 102 -241 172 -18 11 -45 28 -59 38 -14 9 -38 25 -52 35 -15 9 -37 24 -48 32 -12 8 -37 24 -55 35 -18 11 -46 30 -61 43 -15 12 -32 22 -37 22 -5 0 -24 13 -43 30 -19 16 -39 29 -44 30 -5 0 -18 8 -28 17 -11 10 -34 26 -53 38 -30 18 -67 42 -169 111 -15 10 -45 29 -65 41 l-36 21 -1934 1 c-1210 1 -1931 -3 -1925 -8z"/>
<path d="M10107 52599 c-9 -6 -17 -16 -17 -23 0 -31 -84 -268 -322 -911 -16 -44 -49 -134 -73 -200 -24 -66 -67 -183 -96 -260 -80 -218 -166 -452 -293 -800 -64 -176 -123 -336 -130 -355 -8 -19 -24 -61 -35 -92 -53 -147 -64 -174 -72 -193 -4 -11 -29 -78 -54 -150 -26 -71 -55 -152 -66 -180 -10 -27 -42 -113 -70 -190 -63 -173 -145 -398 -209 -570 -27 -71 -71 -193 -100 -270 -28 -77 -62 -169 -75 -205 -13 -36 -58 -157 -99 -270 -42 -113 -114 -308 -162 -435 -48 -126 -88 -246 -91 -265 -3 -30 3 -42 41 -85 59 -66 73 -80 142 -145 48 -46 323 -326 739 -755 107 -111 485 -495 684 -698 110 -111 197 -192 200 -185 9 31 45 58 77 58 18 0 68 11 111 24 43 13 104 27 136 31 32 4 82 15 110 24 29 10 81 21 117 25 35 4 89 16 120 26 30 10 88 24 127 29 40 6 92 18 116 26 24 8 75 19 115 25 39 5 90 17 114 25 24 8 76 20 117 25 41 6 104 19 140 29 62 18 110 29 301 67 41 8 100 22 130 30 30 9 82 20 115 26 33 5 101 20 150 33 50 13 113 26 140 29 28 4 79 15 113 26 35 11 82 20 103 20 75 0 100 33 119 151 5 36 18 90 29 120 10 30 22 80 26 109 4 30 14 73 22 95 8 22 21 76 29 120 7 44 20 93 28 110 8 16 19 62 25 101 6 39 17 87 25 106 9 20 20 66 26 104 6 38 19 92 29 119 10 28 22 77 26 110 4 33 13 72 21 87 8 15 19 60 25 100 6 40 20 93 30 118 10 25 21 70 24 100 4 30 18 87 31 127 13 39 24 85 24 102 0 18 9 57 20 89 11 31 25 89 31 127 6 39 17 82 25 96 7 14 20 67 29 117 8 49 22 105 29 124 8 18 17 58 21 88 4 30 16 76 26 102 10 25 21 70 25 100 3 29 17 85 30 125 13 39 24 85 24 102 0 17 11 62 24 100 13 37 27 92 31 122 3 30 15 77 25 106 11 28 22 75 26 105 4 29 15 74 25 100 10 25 21 70 25 100 3 29 17 85 30 125 13 39 24 85 24 102 0 17 11 63 24 103 13 40 27 96 30 123 3 28 14 73 25 100 10 28 22 75 25 107 4 31 15 78 25 105 10 26 22 73 26 103 4 30 16 76 25 101 10 25 23 79 29 120 5 41 17 88 25 105 9 16 20 61 26 100 5 38 18 92 28 119 11 28 22 76 26 108 3 32 13 71 20 86 8 15 20 56 26 91 6 36 22 101 35 145 13 44 27 110 30 148 6 63 5 67 -14 67 -11 0 -35 -13 -53 -28 -18 -16 -82 -66 -143 -112 -60 -46 -137 -105 -170 -130 -33 -25 -109 -84 -170 -130 -60 -47 -172 -132 -247 -190 -161 -124 -339 -261 -573 -440 -93 -72 -199 -153 -235 -180 -36 -28 -189 -145 -340 -261 -151 -116 -320 -246 -375 -288 -55 -43 -208 -160 -340 -261 -132 -101 -303 -232 -380 -292 -145 -112 -255 -196 -484 -371 -74 -56 -163 -126 -198 -155 -73 -61 -117 -76 -128 -43 -3 12 -2 36 3 54 6 17 13 129 16 247 7 238 21 627 36 1025 12 312 44 1192 65 1800 8 242 19 494 25 560 12 142 13 212 2 219 -4 2 -15 0 -25 -5z"/>
<path d="M6710 50750 c-19 -5 -199 -34 -400 -64 -321 -49 -1100 -167 -1795 -272 -404 -61 -803 -122 -1050 -159 -132 -20 -248 -38 -257 -41 -28 -8 -22 -27 32 -94 27 -34 50 -67 50 -72 0 -6 15 -35 34 -66 19 -32 151 -250 293 -487 142 -236 369 -614 505 -840 136 -225 352 -584 480 -798 128 -213 247 -411 265 -440 18 -28 37 -61 42 -72 6 -11 25 -44 43 -73 40 -65 732 -1212 843 -1398 227 -380 601 -1002 616 -1024 9 -14 31 -49 49 -77 19 -29 37 -53 42 -53 13 0 29 49 23 73 -3 12 1 159 9 327 15 293 26 521 81 1685 14 292 32 674 40 850 8 176 24 511 35 745 31 671 49 1052 65 1375 23 461 35 760 38 875 l2 105 -25 2 c-14 1 -41 -3 -60 -7z"/>
<path d="M3142 50088 c-7 -7 -12 -31 -12 -55 0 -31 5 -45 19 -52 14 -8 21 -26 26 -73 10 -99 15 -116 36 -121 17 -5 19 -14 19 -85 0 -73 2 -82 24 -100 22 -16 25 -28 27 -87 3 -96 8 -115 30 -115 16 0 19 8 19 53 -1 28 -10 77 -21 107 -11 30 -25 79 -30 108 -5 29 -16 72 -25 95 -9 23 -22 78 -31 122 -8 44 -23 99 -34 122 -10 24 -19 52 -19 62 0 25 -13 34 -28 19z"/>
<path d="M3337 49394 c-9 -9 -9 -111 0 -154 3 -20 13 -35 25 -37 18 -5 21 -15 19 -68 -2 -33 16 -135 25 -144 3 -3 9 1 14 9 7 11 10 8 11 -15 4 -135 13 -185 34 -185 19 0 25 -23 25 -99 0 -53 4 -72 18 -84 10 -10 22 -14 25 -10 4 3 7 2 7 -3 4 -170 5 -175 26 -192 18 -14 23 -32 28 -102 5 -67 11 -88 26 -100 15 -12 20 -34 26 -102 8 -102 15 -119 39 -94 16 15 16 25 5 94 -6 42 -20 91 -31 108 -10 17 -19 48 -19 68 0 20 -9 64 -20 97 -11 33 -27 92 -36 132 -8 39 -21 82 -29 94 -8 12 -15 39 -15 60 -1 21 -10 63 -21 93 -11 30 -27 91 -35 134 -8 43 -21 91 -29 105 -8 14 -19 57 -25 94 -6 37 -19 87 -29 110 -11 23 -24 73 -29 111 -10 67 -22 93 -35 80z"/>
<path d="M3695 47923 c5 -78 8 -90 30 -108 22 -18 25 -29 25 -85 0 -81 7 -107 30 -113 14 -4 18 -19 22 -90 4 -79 7 -89 32 -112 25 -23 28 -32 23 -68 -8 -57 6 -125 29 -141 14 -11 19 -31 22 -90 4 -76 16 -101 44 -91 13 5 13 16 1 88 -8 45 -20 91 -28 103 -7 11 -17 43 -21 70 -3 27 -17 81 -29 119 -13 39 -26 93 -30 120 -4 28 -15 66 -25 85 -10 19 -21 60 -23 91 -3 31 -14 76 -25 100 -11 24 -23 67 -27 94 -10 73 -25 115 -41 115 -11 0 -13 -16 -9 -87z"/>
<path d="M3960 46939 c0 -83 12 -124 34 -116 9 4 13 -12 15 -56 3 -92 11 -129 31 -134 14 -4 18 -20 22 -93 3 -48 9 -94 14 -101 5 -8 7 -25 5 -38 -2 -21 0 -23 26 -17 47 12 55 39 23 76 -11 13 -20 35 -20 49 0 37 -18 98 -34 113 -7 7 -15 46 -19 86 -4 44 -14 86 -25 106 -10 17 -22 56 -25 87 -8 64 -25 119 -38 119 -5 0 -9 -36 -9 -81z"/>
<path d="M4215 46331 c-2 -5 3 -19 13 -32 9 -14 22 -33 28 -44 6 -11 22 -22 35 -25 13 -3 26 -15 29 -25 3 -12 15 -21 30 -23 14 -2 32 -12 40 -22 8 -10 30 -25 48 -34 17 -9 32 -21 32 -27 0 -5 14 -15 30 -20 17 -6 30 -17 30 -24 0 -8 9 -17 21 -20 11 -4 33 -20 50 -36 16 -16 35 -29 43 -29 7 0 22 -11 34 -25 12 -14 28 -25 36 -25 7 0 21 -11 30 -25 9 -14 21 -25 27 -25 6 0 27 -13 46 -30 18 -16 39 -30 45 -30 6 0 21 -10 34 -22 44 -43 130 -110 164 -128 14 -7 31 -21 37 -30 7 -10 24 -21 38 -24 14 -4 25 -13 25 -21 0 -7 9 -17 20 -20 11 -4 35 -20 52 -36 18 -16 38 -29 45 -29 7 0 17 -9 23 -20 6 -11 21 -22 35 -26 13 -3 31 -17 40 -30 8 -13 21 -24 29 -24 7 0 27 -13 44 -30 18 -16 38 -30 46 -30 8 0 18 -9 21 -20 3 -11 13 -20 20 -20 8 0 27 -11 42 -25 49 -45 105 -85 119 -85 8 0 21 -11 30 -25 9 -14 21 -25 26 -25 6 0 26 -12 44 -27 19 -16 49 -40 68 -55 18 -16 39 -28 44 -28 6 0 16 -9 22 -21 7 -11 25 -25 41 -31 16 -5 29 -16 29 -23 0 -8 10 -17 23 -21 12 -4 37 -20 55 -35 18 -16 38 -29 44 -29 6 0 22 -11 37 -25 60 -58 69 -65 78 -65 6 0 27 -16 47 -35 21 -19 44 -35 51 -35 8 0 16 -8 20 -19 3 -10 18 -21 34 -24 23 -5 28 -11 26 -31 -4 -29 6 -39 29 -30 21 8 31 45 15 54 -17 10 -46 35 -123 105 -33 30 -63 55 -66 55 -7 0 -139 95 -180 130 -14 11 -43 34 -65 50 -73 53 -180 133 -210 156 -11 8 -45 33 -75 55 -68 49 -84 61 -137 102 -23 17 -58 43 -78 57 -20 14 -49 36 -65 50 -15 14 -60 48 -99 75 -40 28 -101 73 -136 100 -35 28 -98 75 -140 105 -162 118 -231 170 -256 192 -15 13 -62 48 -104 78 -43 30 -89 65 -103 77 -13 12 -33 25 -43 28 -11 4 -19 10 -19 15 0 5 -15 18 -33 29 -18 11 -44 29 -56 41 -13 11 -28 20 -32 20 -5 0 -19 9 -31 21 -53 47 -154 126 -170 132 -10 3 -20 2 -23 -2z"/>
<path d="M0 1105 l0 -1105 2209 0 c1591 0 2212 3 2217 11 4 7 19 8 43 3 42 -8 30899 -18 30949 -9 30 5 32 9 32 44 0 25 -5 41 -15 45 -13 5 -15 127 -15 1021 0 896 2 1015 15 1015 11 0 15 11 15 40 l0 40 -17725 0 -17725 0 0 -1105z"/>
</g>
</svg>
